<?xml version="1.0" encoding="UTF-8"?>
<svg id="Camada_1" xmlns="http://www.w3.org/2000/svg" version="1.1" viewBox="0 0 72 72">
  <!-- Generator: Adobe Illustrator 29.8.1, SVG Export Plug-In . SVG Version: 2.1.1 Build 2)  -->
  <defs>
    <style>
      .st0 {
        fill: #4caf50;
      }

      .st1 {
        fill: #fff;
      }
    </style>
  </defs>
  <path class="st1" d="M60,62.5H12c-6.3,0-11.4-5.1-11.4-11.4v-30.3c0-6.3,5.1-11.4,11.4-11.4h48c6.3,0,11.4,5.1,11.4,11.4v30.3c0,6.3-5.1,11.4-11.4,11.4Z"/>
  <path class="st0" d="M9.3,21c8.5,8.3,17,16.6,25.5,24.8,1.6,1.5,4-.9,2.4-2.4-8.5-8.3-17-16.6-25.5-24.8-1.6-1.5-4,.9-2.4,2.4h0Z"/>
  <path class="st0" d="M37.2,45.8c8.5-8.3,17-16.6,25.5-24.8,1.6-1.5-.8-4-2.4-2.4-8.5,8.3-17,16.6-25.5,24.8-1.6,1.5.8,4,2.4,2.4h0Z"/>
  <path class="st0" d="M62.6,51.7c-5.7-5.4-11.3-10.7-17-16.1-1.6-1.5-4,.9-2.4,2.4,5.7,5.4,11.3,10.7,17,16.1,1.6,1.5,4-.9,2.4-2.4h0Z"/>
  <path class="st0" d="M12,54.1c5.7-5.4,11.3-10.7,17-16.1,1.6-1.5-.8-3.9-2.4-2.4-5.7,5.4-11.3,10.7-17,16.1-1.6,1.5.8,3.9,2.4,2.4h0Z"/>
</svg>