<?xml version="1.0" encoding="UTF-8"?>
<svg id="Camada_1" xmlns="http://www.w3.org/2000/svg" xmlns:xlink="http://www.w3.org/1999/xlink" version="1.1" viewBox="0 0 72 72">
  <!-- Generator: Adobe Illustrator 29.8.1, SVG Export Plug-In . SVG Version: 2.1.1 Build 2)  -->
  <defs>
    <style>
      .st0 {
        fill: none;
      }

      .st1 {
        fill: #fff;
      }

      .st2 {
        clip-path: url(#clippath);
      }
    </style>
    <clipPath id="clippath">
      <rect class="st0" x="1.5" width="68.9" height="68.9"/>
    </clipPath>
  </defs>
  <g class="st2">
    <g>
      <path class="st1" d="M53.9,12.7c-2.1,0-3.8,1.7-3.8,3.8s1.7,3.8,3.8,3.8,3.8-1.7,3.8-3.8-1.7-3.8-3.8-3.8Z"/>
      <path class="st1" d="M36.3,17.9c-9,0-16.5,7.6-16.5,16.5s7.6,16.5,16.5,16.5,16.5-7.6,16.5-16.5-7.6-16.5-16.5-16.5ZM36.3,45.1c-5.9,0-10.7-4.8-10.7-10.7s4.8-10.7,10.7-10.7,10.7,4.8,10.7,10.7-4.8,10.7-10.7,10.7Z"/>
      <path class="st1" d="M22.6,67.9c-11,0-20-9-20-20.3v-26.9C2.6,10,11.5,1,22.6,1h26.9c11,0,20.3,9,20.3,20.3v26.9c0,11-9,20.3-20.3,20.3h0l-26.9-.7ZM22.6,7.2c-7.6,0-13.8,6.2-13.8,13.8v26.9c0,7.6,6.2,13.8,13.8,13.8h26.9c7.6,0,13.8-6.2,13.8-13.8v-26.9c0-7.6-6.2-13.8-13.8-13.8,0,0-26.9,0-26.9,0Z"/>
    </g>
  </g>
</svg>