<?xml version="1.0" encoding="UTF-8"?>
<svg id="Camada_1" xmlns="http://www.w3.org/2000/svg" xmlns:xlink="http://www.w3.org/1999/xlink" version="1.1" viewBox="0 0 72 72">
  <!-- Generator: Adobe Illustrator 29.8.1, SVG Export Plug-In . SVG Version: 2.1.1 Build 2)  -->
  <defs>
    <style>
      .st0 {
        fill: none;
      }

      .st1 {
        fill: #fff;
      }

      .st2 {
        clip-path: url(#clippath);
      }
    </style>
    <clipPath id="clippath">
      <rect class="st0" x="2" y="8.8" width="68.1" height="54.5"/>
    </clipPath>
  </defs>
  <g class="st2">
    <path class="st1" d="M69,26.2c0-9-6.5-16.3-14.4-16.3H17.6c-7.9,0-14.4,7.4-14.4,16.3v19.3c0,9,6.5,16.3,14.4,16.3h37c7.9,0,14.4-7.4,14.4-16.3v-19.3h0ZM47.2,37.4l-16.6,9.3c-.5.3-3,0-3-1.1v-19.1c0-.8,2.2-1.4,3-.8l15.8,9.8c.5.5,1.4,1.6.8,1.9h0Z"/>
  </g>
</svg>